<?xml version="1.0" standalone="no"?>
<!DOCTYPE svg PUBLIC "-//W3C//DTD SVG 20010904//EN"
 "http://www.w3.org/TR/2001/REC-SVG-20010904/DTD/svg10.dtd">
<svg version="1.0" xmlns="http://www.w3.org/2000/svg"
 width="512.000000pt" height="512.000000pt" viewBox="0 0 512.000000 512.000000"
 preserveAspectRatio="xMidYMid meet">
<metadata>
Created by potrace 1.14, written by Peter Selinger 2001-2017
</metadata>
<g transform="translate(0.000000,512.000000) scale(0.100000,-0.100000)"
fill="#000000" stroke="none">
<path d="M0 4971 c0 -134 2 -150 18 -154 16 -4 16 -5 0 -6 -17 -1 -18 -39 -18
-651 0 -499 3 -650 12 -650 9 0 9 -3 0 -12 -15 -15 -17 -212 -3 -203 13 7 25
-77 17 -123 -3 -20 -10 -38 -16 -40 -13 -5 -14 -782 -1 -782 5 0 23 12 41 26
35 30 135 64 187 64 42 0 128 -36 167 -70 51 -46 76 -110 76 -197 0 -49 -6
-87 -15 -103 -8 -14 -18 -34 -24 -46 -8 -19 -26 -33 -105 -82 -31 -19 -214
-12 -229 8 -11 14 -89 60 -102 60 -3 0 -5 -31 -5 -69 0 -46 4 -71 13 -74 9 -4
9 -6 0 -6 -10 -1 -13 -194 -13 -931 l0 -930 301 0 301 0 -8 23 c-15 42 -4 219
17 267 14 34 100 89 153 99 32 6 63 3 115 -10 121 -31 165 -79 187 -206 11
-65 11 -81 -2 -111 -27 -66 -45 -62 296 -62 171 0 310 3 310 6 0 4 -9 22 -21
40 -34 55 -17 192 30 235 11 10 21 22 22 26 2 4 34 23 70 41 l66 33 84 -11
c46 -6 94 -18 106 -26 86 -55 137 -182 108 -266 -29 -84 -47 -78 243 -78 l257
0 0 98 c0 101 6 120 59 180 46 53 186 99 258 85 14 -3 51 -26 83 -51 78 -65
109 -136 101 -239 l-6 -73 301 0 301 0 -8 38 c-10 45 -10 81 0 145 6 39 17 57
54 96 26 27 58 55 72 64 34 21 185 23 220 3 14 -8 39 -22 55 -31 17 -9 43 -36
59 -61 26 -42 28 -50 23 -117 -3 -40 -9 -87 -13 -105 l-6 -32 286 0 286 0 0
41 c0 22 -4 38 -9 35 -10 -6 -21 16 -21 41 0 30 50 121 79 146 39 33 151 87
194 94 21 3 45 -1 65 -11 17 -9 36 -16 42 -16 7 0 10 373 10 1215 0 1158 -1
1215 -18 1215 -10 0 -27 6 -38 14 -11 8 -37 17 -57 21 -39 8 -51 25 -18 25 30
0 51 11 51 26 0 8 -10 14 -23 14 -26 0 -86 42 -117 82 -57 74 -77 221 -40 293
11 22 20 45 20 51 0 22 103 104 138 110 44 8 59 -6 39 -37 -13 -21 -14 -29 -2
-61 17 -51 44 -90 55 -83 6 4 10 66 10 141 l0 134 -27 0 c-16 0 -35 5 -43 10
-11 7 -4 10 28 10 l42 0 0 744 c0 586 -3 746 -13 750 -9 5 -9 7 0 12 8 3 13
25 13 55 l0 49 -36 0 c-24 0 -41 -7 -53 -21 -14 -17 -21 -19 -44 -10 -15 6
-27 15 -27 21 0 5 -15 10 -34 10 -25 0 -35 -5 -39 -19 -7 -27 -77 -72 -102
-65 -11 3 -31 23 -45 45 -20 32 -30 39 -50 37 -19 -2 -26 -10 -28 -31 -2 -16
-6 -27 -10 -25 -4 2 -19 10 -34 17 -16 8 -28 20 -28 28 0 10 -20 13 -83 13
l-83 0 -10 -37 c-8 -32 -15 -40 -47 -51 -47 -15 -54 -11 -79 44 l-19 44 -94 0
c-74 0 -95 -3 -95 -14 0 -17 -54 -40 -75 -32 -20 7 -20 -18 1 -35 11 -9 14
-23 11 -45 -4 -24 -1 -36 13 -46 10 -7 20 -24 22 -37 3 -20 -5 -27 -49 -47
-52 -23 -53 -23 -64 -3 -18 34 -7 63 26 70 30 7 30 7 -6 8 -40 1 -69 26 -69
60 0 14 -12 29 -36 43 -23 13 -37 30 -41 49 -5 26 -10 29 -44 29 -46 0 -49
-11 -18 -79 54 -118 60 -136 53 -156 -9 -22 -41 -18 -47 5 -3 11 -13 20 -23
20 -16 0 -16 -1 -1 -18 23 -25 21 -39 -4 -53 -30 -16 -71 16 -84 67 -6 21 -16
49 -23 61 -6 12 -12 30 -12 40 0 11 -11 34 -25 53 -14 19 -25 40 -25 47 0 7
-11 13 -25 13 -30 0 -30 -1 -4 -70 31 -79 35 -118 14 -126 -20 -8 -34 11 -28
37 6 23 -38 36 -71 21 -19 -8 -27 -6 -44 11 -21 20 -22 20 -41 3 -16 -14 -18
-23 -10 -43 5 -13 9 -33 9 -44 0 -10 9 -28 20 -39 36 -36 23 -65 -35 -74 -22
-3 -46 -2 -54 3 -19 12 -5 49 22 54 21 4 21 4 1 6 -14 1 -27 16 -43 52 -17 36
-33 55 -57 67 -19 8 -34 23 -35 31 -1 23 -28 -40 -29 -66 0 -12 3 -23 8 -25 4
-1 17 -27 29 -56 l21 -52 -20 -11 c-29 -15 -83 -15 -102 0 -20 17 -4 51 24 51
27 0 25 18 -2 22 -20 3 -23 10 -26 54 -3 47 -6 53 -32 64 -17 7 -30 16 -30 21
0 5 -4 9 -8 9 -15 0 -32 -49 -32 -90 0 -32 4 -39 22 -42 31 -4 48 -62 26 -85
-25 -24 -104 -29 -128 -8 -24 22 -26 67 -4 86 23 19 10 54 -36 95 -37 34 -40
40 -40 90 0 52 -1 54 -26 54 -19 0 -25 -4 -21 -14 16 -40 18 -89 6 -117 -11
-29 -15 -31 -48 -25 -51 8 -71 37 -71 102 l0 54 -47 0 -48 0 3 -55 c5 -72 -2
-98 -29 -110 -27 -12 -27 -29 1 -33 24 -4 35 -24 26 -48 -5 -13 -9 -14 -21 -4
-12 10 -21 10 -41 1 -22 -10 -28 -9 -39 6 -8 10 -13 29 -13 43 0 14 -7 49 -16
79 -9 30 -16 70 -16 88 0 29 -3 33 -26 33 l-26 0 7 -67 c7 -80 -7 -113 -42
-95 -35 19 -59 -22 -28 -48 19 -15 1 -43 -24 -38 -12 3 -16 18 -17 74 -1 38
-5 93 -9 122 l-7 52 -55 0 c-40 0 -54 -3 -50 -12 18 -49 17 -57 -3 -68 -19
-10 -51 -8 -102 6 -12 4 -22 -3 -30 -21 -10 -22 -17 -26 -39 -21 -38 7 -53
-13 -44 -64 4 -22 11 -40 16 -40 5 0 0 -9 -12 -21 l-21 -21 38 -23 c36 -22 36
-23 16 -34 -11 -6 -27 -9 -34 -7 -49 15 -48 14 -37 45 8 21 7 50 -1 98 -14 82
-14 77 -5 136 l8 47 -31 0 c-31 0 -32 -1 -30 -47 2 -28 -2 -48 -9 -50 -7 -3
-24 -14 -39 -25 l-26 -21 22 -17 c27 -20 21 -50 -8 -50 -36 0 -47 28 -47 122
l0 88 -41 0 c-47 0 -47 -1 -60 -97 -3 -29 -11 -53 -16 -53 -6 0 -7 11 -4 25 4
14 2 25 -4 25 -5 0 -10 -5 -10 -11 0 -5 -4 -8 -8 -5 -5 3 -15 -6 -22 -19 -27
-50 -44 -17 -38 73 l3 57 -32 3 c-30 3 -33 1 -33 -23 0 -14 -7 -37 -16 -50 -9
-14 -17 -51 -19 -84 -3 -72 -8 -81 -45 -81 -43 0 -60 10 -60 34 0 30 11 66 19
62 3 -2 6 10 7 27 0 18 4 51 9 75 l8 42 -92 0 -92 0 3 -35 c2 -38 -5 -51 -22
-40 -7 5 -9 20 -5 41 l6 34 -61 0 c-35 0 -60 -4 -60 -10 0 -6 -11 -22 -25 -36
l-26 -26 21 -34 c11 -20 20 -37 20 -40 0 -12 -38 0 -63 20 -25 20 -27 26 -17
50 5 15 10 38 10 52 0 24 -1 24 -101 24 l-101 0 6 -24 c3 -13 9 -32 13 -42 5
-14 2 -16 -18 -11 -13 4 -30 7 -36 7 -8 0 -13 14 -13 35 l0 35 -355 0 -355 0
0 -149z m4201 57 c40 -78 32 -101 -38 -116 -55 -12 -63 -9 -63 24 0 18 5 24
23 24 29 0 57 19 39 27 -42 17 -58 83 -25 102 24 13 29 8 64 -61z m-3401 -4
c0 -8 -5 -12 -10 -9 -6 4 -8 11 -5 16 9 14 15 11 15 -7z m3790 6 c13 -9 13
-11 0 -20 -19 -12 -27 -12 -35 0 -7 11 2 30 13 30 4 0 14 -5 22 -10z m-486
-22 c-3 -13 -11 -29 -17 -36 -14 -17 -37 4 -37 34 0 20 5 24 31 24 27 0 30 -3
23 -22z m356 -6 c0 -23 -8 -31 -49 -50 -27 -12 -52 -22 -56 -22 -3 0 -5 15 -3
33 2 26 9 34 36 42 17 5 32 13 32 17 0 4 9 8 20 8 15 0 20 -7 20 -28z m-3310
-22 c12 -8 11 -10 -7 -10 -13 0 -23 5 -23 10 0 13 11 13 30 0z m965 -4 c40
-21 45 -33 45 -112 0 -65 -2 -72 -24 -82 -26 -12 -60 -6 -91 15 -11 7 -27 13
-37 13 -17 0 -17 1 0 18 16 16 18 31 14 90 l-4 72 35 0 c19 0 47 -6 62 -14z
m2955 4 c0 -5 -4 -10 -10 -10 -5 0 -10 5 -10 10 0 6 5 10 10 10 6 0 10 -4 10
-10z m-33 -6 c-3 -3 -12 -4 -19 -1 -8 3 -5 6 6 6 11 1 17 -2 13 -5z m-3836
-24 c5 0 9 -4 9 -10 0 -5 -11 -10 -25 -10 -16 0 -25 6 -25 16 0 11 5 14 16 10
9 -3 20 -6 25 -6z m2294 -41 c4 -12 19 -20 43 -24 55 -9 62 -13 62 -29 0 -22
-37 -53 -73 -60 -60 -12 -108 66 -77 124 12 22 37 17 45 -11z m-1906 -23 c23
-49 -18 -57 -67 -12 -22 19 -22 21 -5 34 27 19 56 11 72 -22z m1141 4 c0 -5
-2 -10 -4 -10 -3 0 -8 5 -11 10 -3 6 -1 10 4 10 6 0 11 -4 11 -10z m-944 -24
c3 -8 1 -23 -5 -33 -6 -10 -11 -12 -11 -5 0 6 -9 12 -19 12 -30 0 -35 19 -9
29 32 13 38 13 44 -3z m784 -30 c6 -8 10 -25 8 -38 -3 -25 -35 -36 -81 -30
-25 4 -28 8 -25 36 3 27 8 32 38 37 19 4 38 7 41 8 4 0 12 -6 19 -13z m-203
-19 c6 -7 13 -21 15 -32 2 -17 -3 -21 -36 -23 -64 -5 -86 4 -86 37 0 15 3 31
8 35 10 11 84 -2 99 -17z m449 -13 c8 -33 -5 -46 -50 -47 -44 -1 -61 13 -52
47 6 23 11 26 51 26 40 0 45 -3 51 -26z m-2673 -31 c-13 -2 -33 -2 -45 0 -13
2 -3 4 22 4 25 0 35 -2 23 -4z m141 -43 c-7 -7 -19 -7 -35 -1 -23 9 -22 10 11
10 23 1 31 -2 24 -9z m3114 -287 c-26 -2 -71 -2 -100 0 -29 2 -8 3 47 3 55 0
79 -1 53 -3z m1092 -59 c0 -25 -4 -30 -22 -29 -12 1 -25 11 -29 23 -5 12 -14
22 -21 22 -9 0 -9 3 -2 8 6 4 13 15 17 25 7 17 8 17 32 0 17 -12 24 -28 25
-49z m-2550 -804 c0 -9 -30 -15 -53 -11 -5 1 -6 -3 -2 -8 3 -6 -17 -17 -45
-25 -28 -8 -57 -22 -66 -31 -8 -8 -29 -15 -46 -15 -17 0 -29 2 -27 4 22 22 85
56 114 62 20 3 39 13 42 20 6 16 83 20 83 4z m1127 -34 c17 -16 -18 -26 -95
-26 -57 -1 -96 -6 -112 -15 -14 -8 -34 -14 -46 -15 -11 0 -34 -11 -50 -25 -30
-26 -54 -33 -54 -15 0 5 10 15 23 21 12 7 25 18 30 25 4 7 21 15 37 19 16 4
33 11 36 16 13 22 53 29 138 25 48 -3 90 -7 93 -10z m1003 5 c51 -9 42 -15
-45 -31 -120 -23 -171 -50 -265 -142 -20 -19 -41 -45 -47 -59 l-12 -24 0 30
c-2 70 76 156 190 209 56 26 100 30 179 17z m-920 -51 c0 -12 -17 -12 -45 0
-17 7 -15 9 13 9 17 1 32 -3 32 -9z m1806 -39 c-7 -11 -55 -20 -61 -11 -8 12
7 20 37 20 16 0 27 -4 24 -9z m-2904 -49 c26 -11 69 -41 96 -66 60 -56 77
-107 74 -214 l-2 -74 30 7 c27 6 30 4 30 -19 0 -15 -12 -45 -27 -69 -119 -190
-362 -233 -518 -92 -44 40 -48 46 -32 55 21 14 22 33 1 51 -24 20 -51 80 -59
132 -6 37 -2 61 16 113 28 80 75 133 154 175 54 28 67 31 125 26 36 -2 86 -13
112 -25z m-1081 -8 c8 -8 20 -14 25 -14 20 0 89 -91 106 -138 36 -102 14 -184
-72 -271 -33 -33 -56 -62 -51 -65 14 -9 69 5 82 20 6 8 16 14 22 14 6 0 18 7
28 16 12 11 19 12 24 4 6 -9 -60 -81 -106 -115 -22 -16 -68 -33 -132 -46 -54
-12 -59 -11 -80 9 -17 16 -36 22 -70 22 -26 0 -47 5 -47 10 0 6 23 10 52 10
58 0 158 20 158 32 0 5 -8 8 -18 8 -10 0 -27 6 -38 14 -16 11 -28 12 -60 4
-36 -10 -45 -8 -87 17 -63 37 -115 98 -138 165 -24 68 -23 80 4 160 24 70 54
110 103 141 41 25 44 24 44 -8 1 -19 18 -47 54 -87 61 -66 87 -70 119 -17 21
36 22 55 2 75 -14 14 -14 18 1 41 18 27 43 27 75 -1z m1729 18 c0 -13 -12 -22
-22 -16 -10 6 -1 24 13 24 5 0 9 -4 9 -8z m2174 -14 c-10 -12 -26 -29 -35 -39
-9 -9 -19 -23 -21 -30 -3 -8 -9 -11 -13 -7 -12 11 4 58 19 58 8 0 16 9 19 20
3 13 14 20 28 20 22 0 22 0 3 -22z m-1974 -51 c5 -38 3 -58 -8 -75 -13 -21
-12 -24 12 -48 31 -31 56 -26 56 13 l0 27 20 -22 c22 -23 64 -29 76 -11 3 6 1
23 -6 37 -7 15 -16 34 -19 42 -10 20 -1 100 10 100 6 0 29 -10 52 -21 143 -73
205 -201 158 -329 -10 -30 -17 -58 -15 -62 9 -15 32 -8 37 10 2 11 14 22 27
25 21 5 22 3 17 -33 -15 -111 -175 -230 -309 -230 -82 1 -148 16 -171 41 -10
10 -24 19 -32 19 -8 0 -15 5 -15 10 0 6 15 10 33 10 18 0 42 6 52 14 18 13 17
14 -11 20 -39 9 -110 70 -139 120 -45 80 -40 215 11 275 13 16 24 31 24 34 0
22 117 104 129 91 3 -2 8 -28 11 -57z m1269 33 c111 -56 165 -130 177 -243 6
-60 9 -68 30 -73 28 -7 27 -3 13 -62 -28 -112 -151 -213 -281 -229 -119 -14
-298 60 -236 98 6 4 3 9 -8 13 -11 3 -24 14 -29 25 -71 136 -75 147 -75 202 0
87 23 147 77 205 26 28 58 56 70 62 30 17 63 15 63 -3 0 -8 13 -29 29 -47 27
-30 31 -32 46 -17 9 9 19 35 22 58 7 51 21 52 102 11z m789 -542 c-6 -18 -22
-20 -43 -3 -19 14 -18 14 13 15 22 0 32 -4 30 -12z m-3543 -468 c10 -11 23
-20 29 -20 16 0 56 -45 78 -87 30 -56 27 -189 -6 -237 -39 -59 -82 -95 -135
-116 -65 -25 -87 -25 -136 0 -22 11 -49 20 -62 20 -12 0 -26 6 -30 13 -4 7
-21 18 -36 25 -16 7 -34 27 -42 46 -8 19 -19 36 -25 38 -6 2 -11 42 -12 99 -2
82 1 98 18 116 10 12 30 34 45 49 50 57 94 74 200 74 83 0 98 -3 114 -20z
m2090 -9 c115 -39 172 -100 182 -194 12 -113 -19 -191 -100 -255 -54 -43 -149
-59 -223 -37 -73 21 -146 90 -165 158 -7 26 -17 47 -21 47 -15 0 -9 117 7 130
8 7 15 18 15 26 0 16 55 74 69 74 6 0 15 9 21 20 11 21 87 49 135 49 17 0 53
-8 80 -18z m-985 -41 c61 -48 93 -97 98 -151 7 -69 -6 -134 -31 -161 -12 -14
-34 -38 -48 -54 -46 -50 -69 -65 -125 -76 -39 -8 -69 -8 -107 0 -56 11 -126
49 -127 68 0 7 -6 14 -13 17 -8 3 -26 28 -40 56 -22 42 -27 64 -27 126 0 69 2
76 25 91 14 9 25 21 25 26 0 11 40 47 53 48 4 0 7 -11 7 -25 0 -14 7 -28 15
-31 8 -4 15 -14 15 -24 0 -9 9 -25 20 -35 32 -29 60 -98 60 -149 0 -56 14 -86
39 -86 24 0 31 19 31 79 0 45 23 105 53 140 25 28 49 82 43 97 -3 8 -18 14
-34 14 -23 0 -35 -9 -57 -40 -29 -42 -55 -52 -55 -22 -1 25 -35 63 -67 71 -64
17 -28 60 45 53 27 -2 58 0 67 5 26 15 92 -3 135 -37z m2094 6 c53 -36 72 -64
90 -134 15 -54 15 -69 3 -122 -15 -63 -51 -127 -78 -135 -8 -3 -26 -15 -38
-26 -18 -17 -25 -19 -31 -9 -5 7 -6 19 -4 25 3 7 -4 15 -16 18 -23 6 -36 -13
-27 -37 14 -36 -121 -38 -148 -2 -5 7 -21 16 -35 19 -32 9 -40 15 -71 57 -40
55 -54 133 -36 201 13 51 25 70 95 141 29 30 76 38 193 32 51 -2 75 -8 103
-28z m-904 -462 c0 -10 -48 -52 -89 -79 -53 -35 -193 -67 -211 -49 -18 18 9
36 76 50 38 8 79 21 91 29 12 8 31 15 42 15 11 0 24 6 28 14 7 12 26 20 56 25
4 0 7 -2 7 -5z m-2188 -15 c-13 -5 -31 -18 -40 -28 -38 -43 -188 -75 -247 -52
-15 6 -9 9 25 14 25 3 63 15 85 27 23 12 59 20 87 20 36 0 48 4 48 15 0 10 10
15 33 14 30 0 30 -1 9 -10z m1088 1 c0 -5 -7 -10 -16 -10 -8 0 -12 5 -9 10 3
6 10 10 16 10 5 0 9 -4 9 -10z m-40 -30 c0 -6 -8 -13 -17 -17 -10 -3 -31 -15
-47 -26 -21 -15 -45 -20 -95 -20 -36 0 -75 3 -86 6 -11 3 -31 6 -45 8 -14 1
11 5 55 10 44 4 105 17 135 28 61 22 100 27 100 11z m2138 -2 c-5 -15 -58 -24
-58 -9 0 9 20 17 48 20 8 0 12 -5 10 -11z m-4328 -8 c-37 -12 -92 -12 -85 0 3
6 30 10 58 9 41 -1 47 -3 27 -9z m4274 -30 c-6 -6 -34 -13 -62 -17 -34 -4 -52
-10 -52 -19 0 -10 -13 -14 -42 -14 l-43 1 38 13 c20 8 43 18 50 24 7 6 33 12
57 15 25 2 49 4 55 5 5 1 4 -3 -1 -8z m-1278 -12 c7 -12 -68 -10 -86 2 -11 8
-2 10 33 8 27 -1 50 -5 53 -10z m984 3 c0 -5 -9 -7 -20 -4 -11 3 -20 7 -20 9
0 2 9 4 20 4 11 0 20 -4 20 -9z m-3807 -398 c15 -7 27 -17 27 -22 0 -4 11 -14
25 -21 14 -8 37 -37 51 -64 23 -45 25 -60 22 -131 -6 -91 -25 -134 -70 -154
-16 -7 -42 -24 -59 -38 -27 -23 -35 -24 -92 -18 -107 11 -119 22 -72 63 17 15
25 32 25 54 0 60 9 76 46 83 19 3 38 13 41 21 7 19 -13 42 -40 46 -25 3 -35
37 -15 49 7 5 27 6 44 3 38 -7 86 19 77 42 -17 46 -175 56 -221 15 -23 -20
-24 -26 -18 -82 11 -90 -3 -269 -20 -269 -30 0 -89 76 -112 143 -21 58 -22 71
-12 104 7 21 16 42 21 47 5 6 9 18 9 27 0 27 71 96 105 102 17 3 46 10 65 15
43 13 135 4 173 -15z m994 -5 c32 -14 104 -67 116 -85 4 -6 15 -19 24 -29 21
-20 35 -113 27 -174 -8 -55 -46 -119 -88 -148 -18 -12 -58 -30 -90 -41 -58
-19 -60 -19 -133 -1 -123 32 -203 126 -203 239 0 34 4 69 9 79 5 9 19 39 31
65 22 48 49 68 139 103 40 15 123 11 168 -8z m1142 -53 c91 -74 96 -84 96
-196 0 -68 -3 -80 -30 -120 -69 -102 -113 -123 -235 -113 -47 3 -95 10 -107
15 -32 12 -62 44 -69 76 -4 16 -14 36 -23 47 -24 27 -21 144 4 162 11 8 21 32
24 56 5 35 10 44 29 46 21 3 22 1 22 -77 0 -44 -4 -82 -8 -85 -9 -5 8 -124 21
-143 12 -19 45 -15 57 6 5 11 10 36 10 55 0 29 4 37 24 42 47 12 59 2 70 -55
12 -61 23 -70 54 -44 20 17 22 29 24 168 l3 150 -34 3 c-42 4 -51 -8 -51 -71
0 -42 -3 -49 -27 -58 -36 -14 -58 9 -55 57 4 51 -6 74 -36 86 -16 6 -22 12
-14 15 6 3 10 9 7 13 -8 13 51 28 112 29 49 1 55 -2 132 -64z m986 9 c80 -41
107 -75 124 -156 28 -129 -30 -245 -131 -264 -18 -4 -41 -14 -51 -22 -54 -47
-198 16 -253 110 -42 72 -47 91 -34 146 10 45 21 63 74 115 65 65 134 107 176
107 14 0 57 -16 95 -36z m1023 0 c42 -6 41 -20 -4 -39 -20 -8 -45 -26 -56 -40
-25 -32 -38 -32 -38 -1 0 21 -22 56 -36 56 -3 0 -18 -10 -34 -22 l-30 -22 2
-125 c2 -69 -1 -136 -5 -148 -10 -29 -47 -41 -59 -20 -5 9 -14 22 -21 29 -17
17 -47 77 -47 95 0 31 42 140 63 163 26 29 85 75 107 82 15 5 97 1 158 -8z
m-2295 -9 c-3 -9 -8 -14 -10 -11 -3 3 -2 9 2 15 9 16 15 13 8 -4z m2409 -70
c86 -85 76 -216 -25 -322 -56 -59 -199 -83 -251 -42 -14 11 -26 24 -26 28 0 5
18 20 40 35 30 20 40 33 40 54 0 34 10 72 19 72 3 0 18 -21 31 -47 36 -69 50
-83 82 -83 24 0 28 4 28 28 0 15 -6 36 -14 47 -7 11 -16 34 -18 50 -3 17 -12
45 -19 63 -13 30 -12 34 4 43 9 6 17 15 17 20 0 6 9 22 20 36 12 16 18 34 15
45 -10 29 9 21 57 -27z m-357 -455 c3 -5 -1 -10 -9 -10 -9 0 -16 5 -16 10 0 6
4 10 9 10 6 0 13 -4 16 -10z m78 -47 c-7 -2 -19 -2 -25 0 -7 3 -2 5 12 5 14 0
19 -2 13 -5z"/>
<path d="M1815 3300 c-4 -6 40 -10 125 -10 85 0 129 4 125 10 -4 6 -57 10
-125 10 -68 0 -121 -4 -125 -10z"/>
<path d="M1873 3130 c-42 -17 -44 -180 -2 -180 17 0 19 8 19 59 0 40 5 63 15
71 18 15 19 22 3 42 -10 12 -19 14 -35 8z"/>
<path d="M1977 3076 c-4 -9 -3 -38 0 -66 l6 -52 23 29 c30 36 30 46 0 78 -19
20 -25 22 -29 11z"/>
<path d="M1810 2930 c0 -5 7 -10 15 -10 8 0 15 5 15 10 0 6 -7 10 -15 10 -8 0
-15 -4 -15 -10z"/>
<path d="M776 3184 c-12 -11 -16 -29 -14 -58 l3 -41 45 0 45 0 0 -64 c1 -45 5
-66 14 -69 18 -6 60 48 60 78 1 28 -38 70 -63 70 -30 0 -31 31 -1 54 32 26 28
31 -31 40 -32 6 -45 3 -58 -10z"/>
<path d="M747 2980 c-4 -16 1 -23 19 -31 33 -12 51 -11 60 2 9 14 -14 36 -47
44 -21 5 -27 2 -32 -15z"/>
<path d="M2941 3141 c-18 -12 -2 -20 59 -30 38 -6 50 -5 54 6 10 25 -80 45
-113 24z"/>
<path d="M2991 3001 c-45 -63 -46 -115 -2 -91 24 12 41 48 41 85 0 36 -16 39
-39 6z"/>
<path d="M3205 2970 c3 -5 8 -10 11 -10 2 0 4 5 4 10 0 6 -5 10 -11 10 -5 0
-7 -4 -4 -10z"/>
<path d="M3962 3128 c-16 -16 -15 -31 6 -68 14 -26 21 -30 46 -26 24 5 34 0
66 -35 l37 -41 7 27 c5 19 2 33 -9 44 -8 10 -15 25 -15 34 0 9 -5 19 -11 23
-6 3 -9 15 -6 25 3 10 1 22 -4 25 -8 4 -11 -9 -8 -32 1 -8 -23 -24 -36 -24 -6
0 -16 14 -23 30 -14 32 -30 38 -50 18z"/>
<path d="M3942 2989 c2 -18 9 -34 16 -37 10 -3 13 5 10 29 -2 18 -9 34 -16 37
-10 3 -13 -5 -10 -29z"/>
<path d="M1149 2313 c-15 -40 -7 -56 31 -67 19 -5 38 -15 42 -20 4 -6 8 -54 8
-106 0 -102 4 -114 36 -124 41 -13 54 16 54 119 0 110 4 125 35 125 25 0 55
24 55 43 0 7 -7 23 -16 35 -14 20 -23 22 -125 22 -109 0 -109 0 -120 -27z"/>
<path d="M3274 2275 c-3 -14 -4 -71 -2 -128 6 -131 30 -179 96 -198 53 -15
107 -1 142 36 22 23 24 36 28 144 4 120 -4 161 -33 161 -34 0 -45 -29 -45
-126 0 -125 -29 -175 -73 -126 -13 15 -17 39 -17 113 0 113 -12 143 -57 147
-28 3 -33 -1 -39 -23z"/>
<path d="M4421 2296 c-14 -16 -11 -292 3 -314 4 -7 22 -12 40 -12 44 0 46 9
46 186 0 120 -2 143 -16 148 -27 10 -61 7 -73 -8z"/>
<path d="M1404 1324 c-49 -34 -59 -47 -79 -110 -15 -49 -15 -54 4 -110 37
-105 117 -147 197 -104 48 27 64 54 64 108 0 55 -23 82 -69 82 -63 0 -75 -36
-28 -83 19 -19 19 -20 2 -34 -48 -34 -87 -3 -93 74 -4 52 -1 61 23 87 26 28
28 29 55 13 15 -10 40 -17 54 -17 23 0 26 4 26 35 0 32 -4 37 -52 60 -28 14
-55 25 -58 25 -4 0 -25 -12 -46 -26z"/>
<path d="M3597 1273 c-4 -3 -7 -55 -7 -114 0 -99 -2 -109 -22 -123 -20 -14
-23 -13 -61 26 l-40 41 -19 -22 c-21 -27 -22 -41 -7 -73 18 -39 65 -68 117
-75 45 -5 50 -3 69 23 11 16 23 39 27 51 9 30 11 247 2 261 -8 13 -48 16 -59
5z"/>
<path d="M1788 5103 c7 -3 16 -2 19 1 4 3 -2 6 -13 5 -11 0 -14 -3 -6 -6z"/>
<path d="M3275 4971 c-3 -5 -2 -12 2 -14 9 -5 53 10 53 18 0 9 -49 5 -55 -4z"/>
<path d="M1357 4941 c3 -11 11 -17 18 -14 17 6 8 33 -10 33 -8 0 -11 -8 -8
-19z"/>
<path d="M3700 4935 c0 -9 5 -15 11 -13 6 2 11 8 11 13 0 5 -5 11 -11 13 -6 2
-11 -4 -11 -13z"/>
<path d="M5045 3100 c-9 -14 -9 -61 -1 -88 13 -41 26 -23 26 38 0 55 -10 75
-25 50z"/>
<path d="M107 2322 c-14 -16 -17 -43 -17 -165 l0 -147 25 -6 c48 -12 63 11 56
88 -2 20 34 42 55 34 8 -3 26 -30 39 -60 29 -65 39 -73 72 -55 27 14 26 12 7
117 -4 22 0 47 11 71 20 45 12 69 -37 114 -28 25 -37 27 -113 27 -67 0 -85 -3
-98 -18z m144 -72 c29 -16 23 -28 -16 -36 -42 -8 -72 10 -54 32 14 17 43 18
70 4z"/>
<path d="M713 293 c-15 -5 -17 -64 -4 -78 9 -9 27 -67 54 -172 l10 -43 49 0
c39 0 48 3 48 18 0 19 34 103 67 167 41 80 37 105 -15 105 -18 0 -62 -68 -62
-94 0 -8 -5 -27 -11 -43 l-11 -28 -18 23 c-10 12 -24 47 -30 77 -6 30 -16 57
-21 60 -14 9 -42 13 -56 8z"/>
<path d="M1807 293 c-43 -7 -48 -29 -41 -168 l7 -125 44 0 c45 0 50 7 32 41
-14 27 4 49 41 49 41 0 57 -24 36 -55 -9 -13 -16 -27 -16 -30 0 -3 25 -5 56
-5 l56 0 -7 48 c-4 26 -6 78 -6 115 1 63 -1 70 -29 99 -26 25 -39 30 -88 33
-31 2 -69 1 -85 -2z m103 -88 c16 -20 4 -35 -29 -35 -37 0 -44 10 -24 32 20
22 36 23 53 3z"/>
<path d="M4962 288 c-17 -17 -15 -73 3 -88 22 -19 69 1 73 31 5 43 -49 84 -76
57z"/>
<path d="M2793 282 c-18 -11 -32 -57 -29 -89 2 -15 4 -65 5 -110 l1 -83 35 0
c35 0 35 0 35 45 0 25 5 45 10 45 6 0 10 -4 10 -9 0 -5 8 -11 19 -14 10 -2 24
-18 32 -36 12 -28 18 -31 56 -31 l43 0 -1 127 c0 133 -8 163 -38 163 -28 0
-42 -24 -43 -69 0 -27 -5 -41 -13 -41 -17 0 -45 28 -45 44 0 12 -32 46 -55 59
-6 3 -16 3 -22 -1z"/>
<path d="M3845 253 c-14 -14 -16 -35 -13 -135 l3 -118 31 0 c24 0 33 6 39 22
l8 23 4 -23 c4 -19 10 -22 58 -22 43 0 54 4 58 18 4 16 5 16 6 0 1 -15 11 -18
57 -18 50 0 55 2 48 17 -5 10 -9 64 -9 121 0 109 -5 122 -52 122 -26 0 -73
-53 -73 -83 -1 -66 -51 -54 -69 17 -8 34 -19 49 -41 61 -36 19 -35 19 -55 -2z"/>
</g>
</svg>
